<svg xmlns="http://www.w3.org/2000/svg">
  <defs>
    <symbol id="icon-search" viewBox="0 0 24 24"><circle cx="11" cy="11" r="7"/><line x1="16.5" y1="16.5" x2="21" y2="21"/></symbol>
    <symbol id="icon-plus" viewBox="0 0 24 24"><line x1="12" y1="5" x2="12" y2="19"/><line x1="5" y1="12" x2="19" y2="12"/></symbol>
    <symbol id="icon-pencil" viewBox="0 0 24 24"><path d="M17 3l4 4L8 20H4v-4L17 3z"/></symbol>
    <symbol id="icon-trash" viewBox="0 0 24 24"><path d="M4 7h16"/><path d="M9 7V4h6v3"/><path d="M6 7l1 13h10l1-13"/></symbol>
    <symbol id="icon-user" viewBox="0 0 24 24"><circle cx="12" cy="8" r="4"/><path d="M4 21c0-4 3.6-6 8-6s8 2 8 6"/></symbol>
    <symbol id="icon-users" viewBox="0 0 24 24"><circle cx="9" cy="8" r="3.5"/><path d="M2.5 20c0-3.5 3-5.5 6.5-5.5s6.5 2 6.5 5.5"/><circle cx="17" cy="9" r="3"/><path d="M17.5 14.5c2.5.4 4 2.2 4 5"/></symbol>
    <symbol id="icon-inbox" viewBox="0 0 24 24"><path d="M3 13l3-8h12l3 8v6H3v-6z"/><path d="M3 13h5a4 4 0 0 0 8 0h5"/></symbol>
    <symbol id="icon-building" viewBox="0 0 24 24"><rect x="5" y="3" width="14" height="18"/><line x1="9" y1="8" x2="10.5" y2="8"/><line x1="13.5" y1="8" x2="15" y2="8"/><line x1="9" y1="12" x2="10.5" y2="12"/><line x1="13.5" y1="12" x2="15" y2="12"/><path d="M10 21v-4h4v4"/></symbol>
    <symbol id="icon-clock" viewBox="0 0 24 24"><circle cx="12" cy="12" r="9"/><path d="M12 7v5l3.5 2"/></symbol>
    <symbol id="icon-alert" viewBox="0 0 24 24"><path d="M12 3L1.5 21h21L12 3z"/><line x1="12" y1="10" x2="12" y2="14"/><line x1="12" y1="17" x2="12" y2="17.5"/></symbol>
    <symbol id="icon-check" viewBox="0 0 24 24"><path d="M4 13l5 5L20 7"/></symbol>
    <symbol id="icon-x" viewBox="0 0 24 24"><line x1="6" y1="6" x2="18" y2="18"/><line x1="18" y1="6" x2="6" y2="18"/></symbol>
    <symbol id="icon-chevron-down" viewBox="0 0 24 24"><path d="M6 9l6 6 6-6"/></symbol>
    <symbol id="icon-settings" viewBox="0 0 24 24"><circle cx="12" cy="12" r="3"/><path d="M12 2v3M12 19v3M2 12h3M19 12h3M4.9 4.9l2.2 2.2M16.9 16.9l2.2 2.2M19.1 4.9l-2.2 2.2M7.1 16.9l-2.2 2.2"/></symbol>
    <symbol id="icon-log-out" viewBox="0 0 24 24"><path d="M10 4H4v16h6"/><path d="M15 8l4 4-4 4"/><line x1="19" y1="12" x2="9" y2="12"/></symbol>
    <symbol id="icon-help" viewBox="0 0 24 24"><circle cx="12" cy="12" r="9"/><path d="M9.5 9.5a2.5 2.5 0 1 1 3.6 2.2c-.8.4-1.1 1-1.1 1.8"/><line x1="12" y1="16.5" x2="12" y2="17"/></symbol>
    <symbol id="icon-send" viewBox="0 0 24 24"><path d="M21 3L3 10l8 3 3 8 7-18z"/><path d="M11 13l5-5"/></symbol>
    <symbol id="icon-paperclip" viewBox="0 0 24 24"><path d="M20 11.5l-8 8a5 5 0 0 1-7-7l9-9a3.5 3.5 0 0 1 5 5l-9 9a2 2 0 0 1-3-3l8-8"/></symbol>
    <symbol id="icon-shield" viewBox="0 0 24 24"><path d="M12 2l8 3v6c0 5-3.5 9-8 11-4.5-2-8-6-8-11V5l8-3z"/><path d="M8.5 12l2.5 2.5 4.5-4.5"/></symbol>
    <symbol id="icon-activity" viewBox="0 0 24 24"><path d="M2 12h4l3-8 6 16 3-8h4"/></symbol>
    <symbol id="icon-key" viewBox="0 0 24 24"><circle cx="8" cy="15" r="4.5"/><path d="M11.5 11.5L20 3"/><path d="M16 7l3 3"/></symbol>
    <symbol id="icon-tag" viewBox="0 0 24 24"><path d="M3 3h8l10 10-8 8L3 11V3z"/><circle cx="8" cy="8" r="1.5"/></symbol>
    <symbol id="icon-layers" viewBox="0 0 24 24"><path d="M12 3l9 5-9 5-9-5 9-5z"/><path d="M3 13l9 5 9-5"/><path d="M3 17l9 5 9-5"/></symbol>
    <symbol id="icon-globe" viewBox="0 0 24 24"><circle cx="12" cy="12" r="9"/><path d="M3 12h18"/><path d="M12 3a14 14 0 0 1 0 18 14 14 0 0 1 0-18z"/></symbol>
    <symbol id="icon-bot" viewBox="0 0 24 24"><rect x="5" y="8" width="14" height="11" rx="2"/><circle cx="9.5" cy="13" r="1"/><circle cx="14.5" cy="13" r="1"/><path d="M12 8V4"/><circle cx="12" cy="3" r="1"/><path d="M9 16.5h6"/></symbol>
    <symbol id="icon-file-text" viewBox="0 0 24 24"><path d="M6 2h9l5 5v15H6V2z"/><path d="M15 2v5h5"/><line x1="9" y1="12" x2="15" y2="12"/><line x1="9" y1="16" x2="15" y2="16"/></symbol>
    <symbol id="icon-arrow-right" viewBox="0 0 24 24"><line x1="4" y1="12" x2="20" y2="12"/><path d="M14 6l6 6-6 6"/></symbol>
    <symbol id="icon-command" viewBox="0 0 24 24"><path d="M9 9V6a3 3 0 1 0-3 3h3zm0 0v6m0-6h6m-6 6v3a3 3 0 1 1-3-3h3zm6-6h3a3 3 0 1 0-3-3v3zm0 0v6m0 0h3a3 3 0 1 1-3 3v-3z"/></symbol>
  </defs>
</svg>
